<svg width="41" height="40" viewBox="0 0 41 40" fill="none"
    xmlns="http://www.w3.org/2000/svg">
    <g id="ph:coffee">
        <path id="Vector" d="M13 8.75V3.75C13 3.41848 13.1317 3.10054 13.3661 2.86612C13.6005 2.6317 13.9185 2.5 14.25 2.5C14.5815 2.5 14.8995 2.6317 15.1339 2.86612C15.3683 3.10054 15.5 3.41848 15.5 3.75V8.75C15.5 9.08152 15.3683 9.39946 15.1339 9.63388C14.8995 9.8683 14.5815 10 14.25 10C13.9185 10 13.6005 9.8683 13.3661 9.63388C13.1317 9.39946 13 9.08152 13 8.75ZM19.25 10C19.5815 10 19.8995 9.8683 20.1339 9.63388C20.3683 9.39946 20.5 9.08152 20.5 8.75V3.75C20.5 3.41848 20.3683 3.10054 20.1339 2.86612C19.8995 2.6317 19.5815 2.5 19.25 2.5C18.9185 2.5 18.6005 2.6317 18.3661 2.86612C18.1317 3.10054 18 3.41848 18 3.75V8.75C18 9.08152 18.1317 9.39946 18.3661 9.63388C18.6005 9.8683 18.9185 10 19.25 10ZM24.25 10C24.5815 10 24.8995 9.8683 25.1339 9.63388C25.3683 9.39946 25.5 9.08152 25.5 8.75V3.75C25.5 3.41848 25.3683 3.10054 25.1339 2.86612C24.8995 2.6317 24.5815 2.5 24.25 2.5C23.9185 2.5 23.6005 2.6317 23.3661 2.86612C23.1317 3.10054 23 3.41848 23 3.75V8.75C23 9.08152 23.1317 9.39946 23.3661 9.63388C23.6005 9.8683 23.9185 10 24.25 10ZM39.25 18.75V20C39.2495 21.5899 38.6431 23.1199 37.5542 24.2784C36.4654 25.437 34.9759 26.137 33.3891 26.2359C32.5364 28.6478 31.0847 30.8033 29.1703 32.5H33C33.3315 32.5 33.6495 32.6317 33.8839 32.8661C34.1183 33.1005 34.25 33.4185 34.25 33.75C34.25 34.0815 34.1183 34.3995 33.8839 34.6339C33.6495 34.8683 33.3315 35 33 35H5.5C5.16848 35 4.85054 34.8683 4.61612 34.6339C4.3817 34.3995 4.25 34.0815 4.25 33.75C4.25 33.4185 4.3817 33.1005 4.61612 32.8661C4.85054 32.6317 5.16848 32.5 5.5 32.5H9.33438C7.73953 31.091 6.46171 29.3597 5.58528 27.4205C4.70884 25.4812 4.25374 23.3781 4.25 21.25V13.75C4.25 13.4185 4.3817 13.1005 4.61612 12.8661C4.85054 12.6317 5.16848 12.5 5.5 12.5H33C34.6576 12.5 36.2473 13.1585 37.4194 14.3306C38.5915 15.5027 39.25 17.0924 39.25 18.75ZM31.75 15H6.75V21.25C6.75482 23.597 7.41808 25.8956 8.66438 27.8843C9.91067 29.8731 11.69 31.4723 13.8 32.5H24.7C26.81 31.4723 28.5893 29.8731 29.8356 27.8843C31.0819 25.8956 31.7452 23.597 31.75 21.25V15ZM36.75 18.75C36.7498 17.9747 36.5092 17.2186 36.0615 16.5856C35.6138 15.9527 34.9809 15.4741 34.25 15.2156V21.25C34.2491 22.035 34.1864 22.8186 34.0625 23.5938C34.8381 23.3646 35.5188 22.8909 36.0031 22.2432C36.4875 21.5956 36.7494 20.8087 36.75 20V18.75Z" fill="white"/>
    </g>
</svg>
