<svg width="32" height="32" viewBox="0 0 32 32" fill="none"
    xmlns="http://www.w3.org/2000/svg">
    <path id="Vector" d="M9.49 0.5H22.51C27.47 0.5 31.5 4.53 31.5 9.49V22.51C31.5 24.8943 30.5528 27.1809 28.8669 28.8669C27.1809 30.5528 24.8943 31.5 22.51 31.5H9.49C4.53 31.5 0.5 27.47 0.5 22.51V9.49C0.5 7.1057 1.44716 4.81906 3.13311 3.13311C4.81906 1.44716 7.1057 0.5 9.49 0.5ZM9.18 3.6C7.70009 3.6 6.2808 4.18789 5.23434 5.23434C4.18789 6.2808 3.6 7.70009 3.6 9.18V22.82C3.6 25.9045 6.0955 28.4 9.18 28.4H22.82C24.2999 28.4 25.7192 27.8121 26.7657 26.7657C27.8121 25.7192 28.4 24.2999 28.4 22.82V9.18C28.4 6.0955 25.9045 3.6 22.82 3.6H9.18ZM24.1375 5.925C24.6514 5.925 25.1442 6.12913 25.5075 6.49248C25.8709 6.85583 26.075 7.34864 26.075 7.8625C26.075 8.37636 25.8709 8.86917 25.5075 9.23252C25.1442 9.59587 24.6514 9.8 24.1375 9.8C23.6236 9.8 23.1308 9.59587 22.7675 9.23252C22.4041 8.86917 22.2 8.37636 22.2 7.8625C22.2 7.34864 22.4041 6.85583 22.7675 6.49248C23.1308 6.12913 23.6236 5.925 24.1375 5.925ZM16 8.25C18.0554 8.25 20.0267 9.06652 21.4801 10.5199C22.9335 11.9733 23.75 13.9446 23.75 16C23.75 18.0554 22.9335 20.0267 21.4801 21.4801C20.0267 22.9335 18.0554 23.75 16 23.75C13.9446 23.75 11.9733 22.9335 10.5199 21.4801C9.06652 20.0267 8.25 18.0554 8.25 16C8.25 13.9446 9.06652 11.9733 10.5199 10.5199C11.9733 9.06652 13.9446 8.25 16 8.25ZM16 11.35C14.7667 11.35 13.584 11.8399 12.712 12.712C11.8399 13.584 11.35 14.7667 11.35 16C11.35 17.2333 11.8399 18.416 12.712 19.288C13.584 20.1601 14.7667 20.65 16 20.65C17.2333 20.65 18.416 20.1601 19.288 19.288C20.1601 18.416 20.65 17.2333 20.65 16C20.65 14.7667 20.1601 13.584 19.288 12.712C18.416 11.8399 17.2333 11.35 16 11.35Z" fill="white"/>
</svg>
