<svg width="35" height="34" viewBox="0 0 35 34" fill="none"
    xmlns="http://www.w3.org/2000/svg">
    <path id="Vector" d="M29.5452 4.94709C27.9788 3.37276 26.1131 2.12453 24.0568 1.27518C22.0005 0.425838 19.7948 -0.00761617 17.5683 0.000101268C8.2397 0.000101268 0.636684 7.56508 0.636684 16.847C0.636684 19.822 1.42261 22.712 2.89196 25.262L0.5 34L9.46985 31.654C11.9472 32.997 14.7322 33.711 17.5683 33.711C26.897 33.711 34.5 26.146 34.5 16.864C34.5 12.3591 32.7402 8.12608 29.5452 4.94709ZM17.5683 30.855C15.0397 30.855 12.5623 30.175 10.3925 28.9L9.8799 28.594L4.54925 29.988L5.96734 24.82L5.62563 24.293C4.22077 22.0609 3.47481 19.4808 3.47286 16.847C3.47286 9.12907 9.79447 2.83909 17.5513 2.83909C21.31 2.83909 24.8467 4.30109 27.495 6.95308C28.8062 8.25181 29.8454 9.7966 30.5522 11.4979C31.259 13.1992 31.6194 15.0231 31.6126 16.864C31.6467 24.582 25.3251 30.855 17.5683 30.855ZM25.291 20.383C24.8638 20.179 22.7794 19.159 22.4035 19.006C22.0106 18.87 21.7372 18.802 21.4467 19.21C21.1563 19.635 20.3533 20.587 20.1141 20.859C19.8749 21.148 19.6186 21.182 19.1915 20.961C18.7643 20.757 17.3975 20.298 15.7915 18.87C14.5271 17.748 13.6899 16.3711 13.4337 15.9461C13.1945 15.5211 13.3995 15.3001 13.6216 15.0791C13.8095 14.8921 14.0487 14.5861 14.2538 14.3481C14.4588 14.1101 14.5442 13.9231 14.6809 13.6511C14.8176 13.3621 14.7492 13.1241 14.6467 12.9201C14.5442 12.7161 13.6899 10.6421 13.3482 9.79207C13.0065 8.97608 12.6477 9.07807 12.3915 9.06107H11.5714C11.2809 9.06107 10.8367 9.16307 10.4437 9.58807C10.0678 10.0131 8.97437 11.0331 8.97437 13.1071C8.97437 15.1811 10.495 17.187 10.7 17.459C10.905 17.748 13.6899 21.998 17.9271 23.817C18.9352 24.259 19.7211 24.514 20.3362 24.701C21.3442 25.024 22.2668 24.973 23.0015 24.871C23.8216 24.752 25.5131 23.851 25.8548 22.865C26.2136 21.879 26.2136 21.046 26.094 20.859C25.9744 20.672 25.7181 20.587 25.291 20.383Z" fill="white"/>
</svg>
