<svg width="383" height="162" viewBox="0 0 383 162" fill="none"
    xmlns="http://www.w3.org/2000/svg">
    <mask id="mask0_53_118" style="mask-type:luminance" maskUnits="userSpaceOnUse" x="9" y="53" width="139" height="109">
        <path d="M9.27063 53.828H147.366V161.978H9.27063V53.828Z" fill="white"/>
    </mask>
    <g mask="url(#mask0_53_118)">
        <path fill-rule="evenodd" clip-rule="evenodd" d="M19.6993 97.8411C18.9201 94.7546 18.4556 91.5996 18.4556 88.4514C18.4556 87.7381 18.4931 87.0522 18.5305 86.3389C18.7029 83.3827 19.3097 80.4266 20.3062 77.5939C22.1118 72.4978 25.4833 68.0121 30.6304 65.344C36.3095 62.3879 42.9101 62.2919 49.0911 63.9174C58.4264 66.3866 66.5854 72.5938 72.7964 79.2537L78.8651 85.7833L84.9412 79.2537C91.1522 72.5938 99.2812 66.3866 108.646 63.9174C114.828 62.2919 121.428 62.3879 127.107 65.344C132.254 68.0121 135.626 72.4978 137.431 77.5939C138.428 80.4266 139.035 83.3484 139.207 86.3389C139.776 95.7629 136.338 105.084 131.333 113.212C125.474 122.732 117.165 131.278 108.077 138.294C104.211 141.285 100.06 144.111 95.7299 146.648C88.6648 150.805 76.4226 156.943 79.6517 147.814C81.6746 144.076 82.776 140.407 82.9483 136.737C73.0811 133.39 68.0763 128.383 67.934 121.785C68.7206 127.183 73.0811 131.278 81.0003 134.069C88.455 136.086 91.1522 134.426 89.1293 129.165C86.8892 123.87 85.9676 119.515 86.2898 116.038C86.6045 117.985 87.496 120.942 88.9121 124.975L101.372 113.829C105.739 110.448 107.26 105.509 105.987 98.9454C105.312 95.0153 103.612 93.4858 100.907 94.4254C92.9953 98.3281 87.6009 99.597 84.7239 98.1978C82.1316 96.3116 77.8012 96.5722 71.7325 99.0071C65.9111 101.579 62.4722 104.988 61.3708 109.179C57.5348 121.01 51.5036 128.905 43.2322 132.835C40.64 134.069 37.8004 134.947 34.7886 135.4C47.2406 147.396 63.109 157.177 78.9025 162.533C117.772 149.31 157.136 109.474 145.066 75.2893C136.757 51.7293 104.96 46.5029 78.9025 74.4457C52.8522 46.5029 21.0854 51.7293 12.7466 75.2893C10.6113 81.2702 10.0794 87.4088 10.8585 93.5818C10.8585 93.6778 10.896 93.7807 10.896 93.8767C10.9335 94.103 10.9709 94.3294 11.0009 94.5557C11.0009 94.686 11.0384 94.7889 11.0384 94.9192C11.0758 95.1113 11.1133 95.3376 11.1432 95.5365C11.1432 95.6326 11.1807 95.7286 11.1807 95.8246C11.2182 96.1195 11.2856 96.3802 11.3231 96.6682V96.7025C11.3905 96.9975 11.4279 97.2855 11.5029 97.6148L11.5328 97.7108C11.6078 98.0057 11.6752 98.3281 11.7501 98.623V98.6504C11.8175 98.9111 11.8925 99.1717 11.9299 99.4323C11.9599 99.5627 11.9974 99.693 12.0348 99.789C12.0348 99.8576 12.0723 99.885 12.0723 99.9536C15.0841 111.326 22.3291 121.497 32.6533 128.644C26.1576 119.22 21.7971 108.76 19.6993 97.8411Z" fill="black"/>
    </g>
    <path fill-rule="evenodd" clip-rule="evenodd" d="M23.251 35.9059C19.5199 28.8893 11.8929 25.2473 6.17636 27.7851C0.497291 30.316 -1.09854 38.0527 2.62507 45.0693C6.35618 52.0858 13.9832 55.7279 19.6997 53.197C25.3788 50.6592 26.9747 42.9293 23.251 35.9059Z" fill="black"/>
    <path fill-rule="evenodd" clip-rule="evenodd" d="M68.0467 24.5341C67.9044 13.8412 60.7344 5.23339 51.9985 5.32941C43.2701 5.42543 36.3099 14.1704 36.4147 24.8565C36.5571 35.5493 43.7271 44.164 52.463 44.0611C61.1914 43.9651 68.1516 35.227 68.0467 24.5341Z" fill="black"/>
    <mask id="mask1_53_118" style="mask-type:luminance" maskUnits="userSpaceOnUse" x="84" y="0" width="37" height="46">
        <path d="M84.0731 0H120.515V45.0487H84.0731V0Z" fill="white"/>
    </mask>
    <g mask="url(#mask1_53_118)">
        <path fill-rule="evenodd" clip-rule="evenodd" d="M120.328 21.9001C120.186 9.75319 112.019 -4.53964e-05 102.122 0.0959789C92.2172 0.19886 84.298 10.1373 84.4404 22.2568C84.5827 34.4106 92.7492 44.1639 102.654 44.061C112.551 43.965 120.47 34.054 120.328 21.9001Z" fill="black"/>
    </g>
    <path fill-rule="evenodd" clip-rule="evenodd" d="M132.285 33.5671C136.017 26.5505 143.644 22.9085 149.36 25.4463C155.039 27.9772 156.635 35.7139 152.911 42.7305C149.18 49.747 141.553 53.3891 135.837 50.8513C130.158 48.3204 128.562 40.5837 132.285 33.5671Z" fill="black"/>
    <path d="M172 118.73V86.4664H186.145C189.801 86.4664 192.559 87.2346 194.417 88.771C196.275 90.3074 197.204 92.4336 197.204 95.136C197.204 97.0976 196.649 98.7026 195.555 99.9646C194.477 101.213 192.858 102.159 190.7 102.818V103.284C191.817 103.723 192.716 104.382 193.398 105.26C194.072 106.124 194.724 107.4 195.346 109.101L198.852 118.73H191.689L188.243 109.073C187.898 108.106 187.501 107.358 187.044 106.823C186.602 106.275 186.04 105.884 185.366 105.644C184.684 105.41 183.793 105.287 182.699 105.287H178.953V118.73H172ZM185.306 100.239C188.678 100.239 190.371 98.7986 190.371 95.9042C190.371 92.9823 188.678 91.5145 185.306 91.5145H178.953V100.239H185.306Z" fill="black"/>
    <path d="M226.659 107.948H209.577C209.756 110.054 210.401 111.59 211.525 112.557C212.663 113.531 214.199 114.011 216.14 114.011C217.676 114.011 218.912 113.758 219.856 113.243C220.815 112.715 221.579 111.919 222.163 110.856H222.673L227.108 113.463C226.224 115.164 224.906 116.549 223.152 117.605C221.414 118.669 219.077 119.197 216.14 119.197C213.398 119.197 211.023 118.723 209.007 117.77C207.007 116.803 205.471 115.376 204.392 113.49C203.313 111.59 202.774 109.286 202.774 106.576C202.774 103.799 203.343 101.467 204.482 99.5805C205.621 97.6806 207.157 96.2608 209.097 95.328C211.053 94.3952 213.24 93.9288 215.66 93.9288C219.414 93.9288 222.291 94.8479 224.291 96.6724C226.307 98.4831 227.318 101.158 227.318 104.683C227.318 105.966 227.266 106.961 227.168 107.674L226.659 107.948ZM220.935 103.97C220.852 102.125 220.373 100.781 219.496 99.9372C218.635 99.1004 217.353 98.6751 215.66 98.6751C212.281 98.6751 210.296 100.445 209.696 103.97H220.935Z" fill="black"/>
    <path d="M241.722 119.197C239.901 119.197 238.231 119.005 236.717 118.621C235.219 118.223 233.93 117.681 232.851 117.002C231.787 116.309 231.001 115.52 230.484 114.642L234.2 110.994H234.709C235.586 112.077 236.627 112.887 237.826 113.435C239.04 113.984 240.358 114.258 241.782 114.258C243.078 114.258 244.06 114.053 244.719 113.627C245.378 113.188 245.708 112.578 245.708 111.789C245.708 111.172 245.468 110.651 244.989 110.225C244.524 109.807 243.76 109.478 242.681 109.238L239.175 108.47C236.537 107.887 234.604 107.009 233.391 105.836C232.17 104.649 231.563 103.14 231.563 101.309C231.563 99.7931 231.982 98.4762 232.821 97.3582C233.675 96.2471 234.874 95.3966 236.418 94.8068C237.953 94.2238 239.744 93.9288 241.782 93.9288C244.179 93.9288 246.157 94.2512 247.716 94.8891C249.289 95.5132 250.533 96.3569 251.432 97.4131L247.866 100.925H247.386C246.644 100.177 245.805 99.6285 244.869 99.2787C243.947 98.9152 242.921 98.73 241.782 98.73C239.145 98.73 237.826 99.4845 237.826 100.98C237.826 101.624 238.066 102.146 238.545 102.544C239.04 102.928 239.909 103.25 241.153 103.504L244.419 104.162C247.131 104.697 249.109 105.548 250.353 106.714C251.589 107.887 252.211 109.457 252.211 111.433C252.211 112.969 251.792 114.334 250.952 115.52C250.128 116.693 248.93 117.599 247.356 118.236C245.775 118.874 243.895 119.197 241.722 119.197Z" fill="black"/>
    <path d="M281.828 126.769C278.726 126.769 276.149 126.083 274.096 124.711C272.058 123.339 270.68 121.433 269.96 119.005C267.278 118.641 264.933 117.797 262.918 116.481C260.917 115.164 259.359 113.346 258.243 111.021C257.141 108.703 256.594 105.891 256.594 102.598C256.594 98.9083 257.291 95.8218 258.692 93.3526C260.086 90.8698 262.019 89.0179 264.476 87.8107C266.949 86.6036 269.796 86 273.017 86C276.254 86 279.101 86.6036 281.558 87.8107C284.016 89.0042 285.941 90.8423 287.342 93.3252C288.736 95.815 289.44 98.9083 289.44 102.598C289.44 107.427 288.301 111.131 286.024 113.71C283.761 116.289 280.599 117.9 276.524 118.538L276.404 118.977C276.898 119.759 277.64 120.356 278.621 120.76C279.618 121.179 280.779 121.391 282.098 121.391C283.154 121.391 284.113 121.268 284.975 121.035L285.454 121.117L286.443 126.11C285.919 126.275 285.222 126.419 284.345 126.549C283.484 126.693 282.645 126.769 281.828 126.769ZM273.017 113.655C276.014 113.655 278.299 112.777 279.88 111.021C281.453 109.265 282.248 106.46 282.248 102.598C282.248 98.7437 281.453 95.9316 279.88 94.1757C278.299 92.4061 276.014 91.5145 273.017 91.5145C270.02 91.5145 267.72 92.4061 266.124 94.1757C264.544 95.9316 263.757 98.7437 263.757 102.598C263.757 106.46 264.544 109.265 266.124 111.021C267.72 112.777 270.02 113.655 273.017 113.655Z" fill="black"/>
    <path d="M310.439 86.4664C312.956 86.4664 315.099 86.8917 316.882 87.7285C318.68 88.5721 320.036 89.7587 320.958 91.295C321.872 92.8177 322.336 94.5804 322.336 96.59C322.336 98.6065 321.872 100.369 320.958 101.885C320.036 103.408 318.68 104.587 316.882 105.424C315.099 106.268 312.956 106.686 310.439 106.686H303.756V118.73H296.803V86.4664H310.439ZM309.51 101.638C313.383 101.638 315.324 99.9577 315.324 96.59C315.324 93.2086 313.383 91.5145 309.51 91.5145H303.756V101.638H309.51Z" fill="black"/>
    <path d="M335.969 104.546V113.38H352.812V118.73H329.016V86.4664H352.422V91.7889H335.969V99.3336H350.354V104.546H335.969Z" fill="black"/>
    <path d="M383 86.4664V91.8163H372.84V118.73H365.888V91.8163H355.698V86.4664H383Z" fill="black"/>
</svg>